<svg width="24" height="25" viewBox="0 0 24 25" fill="none" xmlns="http://www.w3.org/2000/svg">
<g clip-path="url(#clip0)">
<path fill-rule="evenodd" clip-rule="evenodd" d="M23.5 11.5841C23.5 5.19378 18.3515 0.0136719 12.0014 0.0136719C5.64848 0.0151092 0.5 5.19378 0.5 11.5855C0.5 17.3593 4.7056 22.1455 10.2019 23.0137V14.9287H7.28415V11.5855H10.2048V9.0343C10.2048 6.13522 11.9224 4.53404 14.5484 4.53404C15.8075 4.53404 17.1226 4.7597 17.1226 4.7597V7.6056H15.6724C14.2451 7.6056 13.7995 8.49817 13.7995 9.41375V11.5841H16.9875L16.4787 14.9273H13.7981V23.0122C19.2944 22.1441 23.5 17.3578 23.5 11.5841Z" fill="#23A6F0"/>
</g>
<defs>
<clipPath id="clip0">
<rect width="24" height="24" fill="white" transform="translate(0 0.0136719)"/>
</clipPath>
</defs>
</svg>
