<svg width="24" height="25" viewBox="0 0 24 25" fill="none" xmlns="http://www.w3.org/2000/svg">
<path d="M12.5 1.01367C9.51488 1.01367 9.1395 1.02742 7.96663 1.07967C6.79375 1.13467 5.99487 1.31892 5.295 1.59117C4.56088 1.8673 3.89593 2.30043 3.34663 2.8603C2.7871 3.40988 2.35402 4.07475 2.0775 4.80867C1.80525 5.50717 1.61963 6.30742 1.566 7.47617C1.51375 8.6518 1.5 9.0258 1.5 12.015C1.5 15.0015 1.51375 15.3755 1.566 16.5484C1.621 17.7199 1.80525 18.5188 2.0775 19.2187C2.35938 19.9419 2.73475 20.5552 3.34663 21.167C3.95713 21.7789 4.57037 22.1557 5.29363 22.4362C5.99487 22.7084 6.79238 22.894 7.96388 22.9477C9.13813 22.9999 9.51213 23.0137 12.5 23.0137C15.4879 23.0137 15.8605 22.9999 17.0347 22.9477C18.2049 22.8927 19.0065 22.7084 19.7064 22.4362C20.44 22.1599 21.1045 21.7268 21.6534 21.167C22.2652 20.5552 22.6406 19.9419 22.9225 19.2187C23.1934 18.5188 23.379 17.7199 23.434 16.5484C23.4862 15.3755 23.5 15.0015 23.5 12.0137C23.5 9.0258 23.4862 8.6518 23.434 7.47755C23.379 6.30742 23.1934 5.50717 22.9225 4.80867C22.646 4.07473 22.2129 3.40985 21.6534 2.8603C21.1042 2.30023 20.4392 1.86706 19.705 1.59117C19.0037 1.31892 18.2035 1.1333 17.0334 1.07967C15.8591 1.02742 15.4865 1.01367 12.4973 1.01367H12.5014H12.5ZM11.5141 2.99642H12.5014C15.4384 2.99642 15.7863 3.00605 16.9454 3.05967C18.0179 3.1078 18.6009 3.28792 18.9886 3.4378C19.5015 3.63717 19.8686 3.87642 20.2536 4.26142C20.6386 4.64642 20.8765 5.01217 21.0759 5.52642C21.2271 5.9128 21.4059 6.4958 21.454 7.5683C21.5076 8.72742 21.5186 9.0753 21.5186 12.0109C21.5186 14.9465 21.5076 15.2958 21.454 16.4549C21.4059 17.5274 21.2257 18.109 21.0759 18.4968C20.8995 18.9744 20.618 19.4063 20.2522 19.7604C19.8672 20.1454 19.5015 20.3833 18.9873 20.5827C18.6023 20.7339 18.0192 20.9127 16.9454 20.9622C15.7863 21.0144 15.4384 21.0268 12.5014 21.0268C9.56438 21.0268 9.21513 21.0144 8.056 20.9622C6.9835 20.9127 6.40188 20.7339 6.01412 20.5827C5.53631 20.4066 5.10405 20.1256 4.74913 19.7604C4.38303 19.4057 4.10112 18.9734 3.92412 18.4954C3.77425 18.109 3.59413 17.526 3.546 16.4535C3.49375 15.2944 3.48275 14.9465 3.48275 12.0082C3.48275 9.07117 3.49375 8.72467 3.546 7.56555C3.5955 6.49305 3.77425 5.91005 3.9255 5.5223C4.12488 5.00942 4.36412 4.6423 4.74913 4.2573C5.13412 3.8723 5.49988 3.63442 6.01412 3.43505C6.40188 3.2838 6.9835 3.10505 8.056 3.05555C9.07075 3.0088 9.464 2.99505 11.5141 2.99367V2.99642ZM18.3726 4.82242C18.1993 4.82242 18.0276 4.85656 17.8675 4.9229C17.7073 4.98924 17.5618 5.08647 17.4392 5.20904C17.3167 5.33161 17.2194 5.47713 17.1531 5.63728C17.0868 5.79743 17.0526 5.96908 17.0526 6.14242C17.0526 6.31577 17.0868 6.48741 17.1531 6.64756C17.2194 6.80771 17.3167 6.95323 17.4392 7.0758C17.5618 7.19838 17.7073 7.29561 17.8675 7.36194C18.0276 7.42828 18.1993 7.46242 18.3726 7.46242C18.7227 7.46242 19.0585 7.32335 19.306 7.0758C19.5536 6.82825 19.6926 6.49251 19.6926 6.14242C19.6926 5.79234 19.5536 5.45659 19.306 5.20904C19.0585 4.96149 18.7227 4.82242 18.3726 4.82242ZM12.5014 6.36517C11.7521 6.35348 11.008 6.49096 10.3123 6.76962C9.61671 7.04827 8.98346 7.46252 8.44946 7.98825C7.91546 8.51399 7.49138 9.1407 7.20191 9.8319C6.91244 10.5231 6.76336 11.265 6.76336 12.0144C6.76336 12.7637 6.91244 13.5056 7.20191 14.1968C7.49138 14.888 7.91546 15.5147 8.44946 16.0405C8.98346 16.5662 9.61671 16.9805 10.3123 17.2591C11.008 17.5378 11.7521 17.6752 12.5014 17.6635C13.9844 17.6404 15.3988 17.0351 16.4393 15.9781C17.4799 14.9212 18.0631 13.4975 18.0631 12.0144C18.0631 10.5312 17.4799 9.10749 16.4393 8.05058C15.3988 6.99367 13.9844 6.38831 12.5014 6.36517ZM12.5014 8.34655C13.474 8.34655 14.4067 8.7329 15.0944 9.42062C15.7821 10.1083 16.1685 11.0411 16.1685 12.0137C16.1685 12.9863 15.7821 13.919 15.0944 14.6067C14.4067 15.2944 13.474 15.6808 12.5014 15.6808C11.5288 15.6808 10.596 15.2944 9.90833 14.6067C9.22061 13.919 8.83425 12.9863 8.83425 12.0137C8.83425 11.0411 9.22061 10.1083 9.90833 9.42062C10.596 8.7329 11.5288 8.34655 12.5014 8.34655Z" fill="#23A6F0"/>
</svg>
