<svg width="24" height="20" viewBox="0 0 24 20" fill="none" xmlns="http://www.w3.org/2000/svg">
<g clip-path="url(#clip0)">
<path d="M8.41075 19.0137C16.713 19.0137 21.2546 12.0868 21.2546 6.09036C21.2546 5.89652 21.2546 5.69992 21.2464 5.50608C22.1306 4.86156 22.8937 4.0636 23.5 3.14959C22.6741 3.51629 21.7988 3.75797 20.9026 3.86679C21.8466 3.29862 22.5536 2.40467 22.8923 1.35108C22.0054 1.88014 21.0346 2.25154 20.0226 2.44902C19.3423 1.7194 18.4419 1.23604 17.4611 1.07383C16.4803 0.911618 15.4737 1.0796 14.5973 1.55175C13.7209 2.0239 13.0236 2.77387 12.6134 3.6855C12.2031 4.59712 12.1029 5.61952 12.3281 6.59433C10.5334 6.50372 8.77762 6.03424 7.17468 5.21636C5.57175 4.39848 4.15744 3.25045 3.0235 1.84674C2.44784 2.84788 2.27216 4.0321 2.53214 5.15893C2.79211 6.28576 3.46825 7.27072 4.42325 7.9138C3.70762 7.88932 3.00772 7.69582 2.38 7.34891V7.41121C2.38123 8.45998 2.74205 9.47615 3.40145 10.288C4.06086 11.0998 4.9784 11.6574 5.999 11.8667C5.61161 11.9741 5.21144 12.0277 4.80963 12.0259C4.52635 12.0268 4.24365 12.0003 3.96537 11.947C4.25383 12.8498 4.8155 13.6391 5.57171 14.2044C6.32793 14.7698 7.24081 15.0828 8.1825 15.0996C6.58276 16.3648 4.60668 17.051 2.5725 17.0476C2.21407 17.0491 1.85588 17.0283 1.5 16.9853C3.56458 18.3107 5.96228 19.0144 8.41075 19.0137Z" fill="#23A6F0"/>
</g>
<defs>
<clipPath id="clip0">
<rect width="24" height="19.7647" fill="white" transform="translate(0 0.131348)"/>
</clipPath>
</defs>
</svg>
