<svg width="23" height="23" viewBox="0 0 23 23" fill="none" xmlns="http://www.w3.org/2000/svg">
<path d="M20.1369 8.41927C20.0793 8.24946 19.9731 8.10025 19.8317 7.99006C19.6902 7.87987 19.5195 7.81353 19.3408 7.79922L14.1116 7.38371L11.8488 2.3747C11.7767 2.21337 11.6595 2.07634 11.5113 1.98016C11.3631 1.88397 11.1902 1.83274 11.0135 1.83264C10.8368 1.83254 10.6638 1.88359 10.5155 1.97961C10.3672 2.07563 10.2498 2.21253 10.1776 2.37378L7.91477 7.38371L2.68562 7.79922C2.50993 7.81314 2.34196 7.87738 2.20183 7.98425C2.06169 8.09113 1.95531 8.23612 1.89541 8.40187C1.83552 8.56762 1.82464 8.74712 1.86409 8.91889C1.90354 9.09066 1.99164 9.24743 2.11785 9.37044L5.98216 13.1375L4.61548 19.0555C4.57398 19.2347 4.58728 19.4221 4.65365 19.5936C4.72003 19.7651 4.83641 19.9127 4.98769 20.0172C5.13898 20.1217 5.31819 20.1783 5.50206 20.1797C5.68593 20.1811 5.86598 20.1272 6.01885 20.025L11.0132 16.6955L16.0075 20.025C16.1638 20.1288 16.348 20.1822 16.5355 20.1781C16.723 20.1739 16.9047 20.1125 17.0563 20.002C17.2078 19.8916 17.3219 19.7373 17.3832 19.5601C17.4444 19.3828 17.4499 19.1911 17.399 19.0106L15.7213 13.1403L19.8819 9.39612C20.1543 9.15031 20.2543 8.7669 20.1369 8.41927Z" fill="#F3CD03"/>
</svg>
