<svg width="40" height="37" viewBox="0 0 40 37" fill="none" xmlns="http://www.w3.org/2000/svg">
<g clip-path="url(#clip0)">
<path d="M0.961261 27.5575C1.07772 27.3713 1.25908 27.358 1.51299 27.5195C7.30708 30.8635 13.6128 32.545 20.4244 32.545C24.97 32.545 29.4544 31.6957 33.8854 30.0142L34.3856 29.7919C34.6052 29.695 34.7579 29.6323 34.8514 29.5848C35.2123 29.4442 35.4738 29.5145 35.6876 29.7919C35.8824 30.0636 35.8327 30.322 35.4967 30.5519C35.0901 30.8521 34.5422 31.2017 33.8931 31.5874C31.9134 32.7635 29.6874 33.6736 27.2265 34.3253C24.8791 34.9535 22.4601 35.2779 20.0293 35.2905C16.423 35.2905 13.0038 34.6635 9.77935 33.4095C6.59829 32.1702 3.66799 30.37 1.12926 28.0952C0.968898 27.9793 0.890625 27.8615 0.890625 27.7456C0.890625 27.6715 0.92117 27.605 0.968898 27.5385L0.961261 27.5575ZM11.4212 17.6984C11.4212 16.1024 11.8164 14.7439 12.6029 13.6096C13.3933 12.4848 14.4681 11.6317 15.8541 11.0522C17.1255 10.5183 18.6509 10.1402 20.4932 9.90836C21.1155 9.83806 22.1369 9.74496 23.5477 9.63286V9.04386C23.5477 7.57516 23.3874 6.57576 23.0743 6.07226C22.5932 5.39016 21.8334 5.04436 20.7776 5.04436H20.4913C19.7276 5.11846 19.0671 5.35216 18.5077 5.77206C17.9463 6.20098 17.5631 6.82045 17.431 7.51246C17.3374 7.98746 17.1026 8.24776 16.7418 8.32186L12.7232 7.82026C12.3242 7.72336 12.1294 7.53526 12.1294 7.20086C12.1294 7.13056 12.1409 7.06026 12.1638 6.96716C12.5628 4.91896 13.5288 3.39326 15.0656 2.39956C16.6196 1.42296 18.4104 0.852961 20.4645 0.737061H21.3255C23.9582 0.737061 26.0391 1.42296 27.5186 2.78146C27.7382 3.01516 27.952 3.25646 28.1677 3.53766C28.3586 3.80176 28.5266 4.03926 28.6144 4.25396C28.7347 4.46486 28.8569 4.77646 28.9275 5.15646C29.0249 5.56116 29.0955 5.82526 29.1433 5.96586C29.1872 6.12926 29.2406 6.44086 29.2654 6.94246C29.2769 7.44026 29.296 7.72146 29.296 7.81836V16.1898C29.296 16.7864 29.3895 17.3336 29.5575 17.8333C29.7255 18.3273 29.8897 18.6902 30.0577 18.903L30.8748 19.9689C30.9971 20.1378 31.0704 20.337 31.0867 20.5446C31.0867 20.7384 30.9932 20.9018 30.8042 21.0386C28.8913 22.7049 27.8394 23.6074 27.6752 23.7518C27.4136 23.9665 27.0776 23.9893 26.6729 23.8259C26.379 23.5794 26.0992 23.3168 25.8348 23.0393L25.3423 22.4864C25.2449 22.3667 25.0731 22.1558 24.8344 21.8176L24.3572 21.1279C23.0666 22.5339 21.8028 23.4174 20.5352 23.7746C19.7448 24.0121 18.7903 24.1318 17.6162 24.1318C15.8484 24.1318 14.3688 23.5903 13.2195 22.4921C12.0779 21.3977 11.5014 19.853 11.5014 17.8314L11.4193 17.7117L11.4212 17.6984ZM17.3985 17.0011C17.3985 17.9036 17.6219 18.6199 18.0763 19.1652C18.5268 19.7067 19.1511 19.9784 19.9185 19.9784C19.9854 19.9784 20.0865 19.9632 20.224 19.9442C20.3729 19.9214 20.4359 19.9062 20.4932 19.9062C21.4706 19.6535 22.2152 19.0303 22.7631 18.0404C23.0277 17.5929 23.2203 17.1069 23.3339 16.6002C23.479 16.091 23.5248 15.6616 23.5458 15.3348C23.5764 15.0194 23.5764 14.4741 23.5764 13.7388V12.8819C22.2343 12.8819 21.2091 12.975 20.5142 13.1631C18.4848 13.7388 17.452 15.0194 17.452 17.0182L17.3966 16.9878V17.0011H17.3985ZM31.9954 28.1446C32.0432 28.0477 32.1157 27.9698 32.2035 27.8729C32.7782 27.491 33.3414 27.2231 33.8778 27.0825C34.7176 26.8676 35.5774 26.7396 36.4436 26.7006C36.667 26.6816 36.8904 26.7006 37.1042 26.7481C38.1332 26.845 38.7708 27.016 38.9694 27.2668C39.0705 27.415 39.1106 27.6297 39.1106 27.89V28.1275C39.1106 28.9369 38.8873 29.8869 38.4463 30.9813C38.0053 32.0757 37.3905 32.9592 36.6078 33.6451C36.4914 33.7382 36.3883 33.7857 36.2947 33.7857C36.247 33.7857 36.1974 33.7857 36.1534 33.7667C36.0084 33.6964 35.9816 33.5767 36.0484 33.3848C36.9094 31.3879 37.3314 29.9895 37.3314 29.2029C37.3314 28.9616 37.2836 28.7716 37.1901 28.6538C36.9629 28.3935 36.3176 28.2415 35.2428 28.2415C34.7794 28.2484 34.3164 28.2731 33.8549 28.3156C33.2764 28.3935 32.7438 28.4638 32.2627 28.5341C32.1214 28.5341 32.0279 28.5075 31.9764 28.4638C31.9286 28.4163 31.9172 28.3897 31.942 28.3422C31.942 28.3156 31.9534 28.2947 31.9764 28.2415V28.1484L31.9954 28.1446Z" fill="white"/>
</g>
<defs>
<clipPath id="clip0">
<rect width="40" height="36" fill="white" transform="translate(0 0.0136719)"/>
</clipPath>
</defs>
</svg>
