<svg width="33" height="39" viewBox="0 0 33 39" fill="none" xmlns="http://www.w3.org/2000/svg">
<g clip-path="url(#clip0)">
<path d="M27.5897 20.0953C27.5708 16.9806 29.0296 14.6331 31.9755 12.9021C30.3279 10.6185 27.8352 9.36259 24.5494 9.12053C21.4382 8.88304 18.0343 10.8743 16.788 10.8743C15.4708 10.8743 12.4588 9.20274 10.0888 9.20274C5.19785 9.27581 0 12.9752 0 20.5018C0 22.726 0.420172 25.0233 1.26051 27.389C2.38412 30.5038 6.43476 38.1355 10.6601 38.0122C12.8695 37.962 14.4322 36.4959 17.3073 36.4959C20.0974 36.4959 21.5421 38.0122 24.0064 38.0122C28.2695 37.9528 31.933 31.0154 33 27.8914C27.2828 25.2836 27.5897 20.2552 27.5897 20.0953ZM22.6279 6.1656C25.0215 3.41618 24.8043 0.913396 24.7335 0.0136719C22.6185 0.132417 20.173 1.40665 18.7803 2.97317C17.2459 4.65388 16.3442 6.73192 16.5378 9.07486C18.8227 9.24384 20.9094 8.10663 22.6279 6.1656Z" fill="white"/>
</g>
<defs>
<clipPath id="clip0">
<rect width="33" height="38" fill="white" transform="translate(0 0.0136719)"/>
</clipPath>
</defs>
</svg>
