<svg width="35" height="39" viewBox="0 0 35 39" fill="none" xmlns="http://www.w3.org/2000/svg">
<g clip-path="url(#clip0)">
<path d="M18.9614 18.2031L25.2233 11.9605L4.99765 0.628064C3.65718 -0.0939359 2.40141 -0.195269 1.30023 0.594287L18.9614 18.2031ZM26.2906 25.5117L32.8002 21.8616C34.0708 21.1523 34.7675 20.1474 34.7675 19.0327C34.7675 17.9202 34.0708 16.9132 32.8023 16.2038L26.9089 12.9042L20.2744 19.5162L26.2906 25.5117ZM0.211764 2.12906C0.0762351 2.54495 0 3.0094 0 3.51818V34.5621C0 35.3664 0.177882 36.0588 0.499765 36.6098L17.6464 19.5141L0.211764 2.12906ZM18.9614 20.823L1.91012 37.8237C2.23624 37.9483 2.58776 38.0137 2.95835 38.0137C3.61906 38.0137 4.30729 37.8195 5.00823 37.4311L24.6071 26.4596L18.9614 20.823Z" fill="white"/>
</g>
<defs>
<clipPath id="clip0">
<rect width="35" height="38.0001" fill="white" transform="translate(0 0.0136719)"/>
</clipPath>
</defs>
</svg>
