<svg width="29" height="29" viewBox="0 0 29 29" fill="none" xmlns="http://www.w3.org/2000/svg">
<g clip-path="url(#clip0)">
<path d="M11.2778 15.6608C11.2778 15.1667 10.9556 14.8373 10.4722 14.8373H0.805556C0.322222 14.8373 0 15.1667 0 15.6608V23.8961C0 24.3902 0.322222 24.7196 0.805556 24.8843L10.4722 26.0373C10.9556 26.0373 11.2778 25.7078 11.2778 25.3784V15.6608ZM13.6944 14.8373C13.2111 14.8373 12.8889 15.1667 12.8889 15.6608V25.3784C12.8889 25.8725 13.2111 26.202 13.6944 26.3667L28.1944 28.0137C28.6778 28.0137 29 27.6843 29 27.3549V15.8255C29 15.3314 28.6778 15.002 28.1944 15.002L13.6944 14.8373ZM11.2778 2.81373C11.2778 2.31961 10.9556 1.9902 10.4722 2.1549L0.805556 3.30784C0.322222 3.30784 0 3.63726 0 4.13137V12.3667C0 12.8608 0.322222 13.1902 0.805556 13.1902H10.4722C10.9556 13.1902 11.2778 12.8608 11.2778 12.3667V2.81373ZM13.6944 1.82549C13.2111 1.82549 12.8889 2.31961 12.8889 2.81373V12.5314C12.8889 13.0255 13.2111 13.3549 13.6944 13.3549H28.1944C28.6778 13.3549 29 13.0255 29 12.5314V1.00196C29 0.507844 28.6778 0.178432 28.1944 0.343138L13.6944 1.82549Z" fill="white"/>
</g>
<defs>
<clipPath id="clip0">
<rect width="29" height="28.0001" fill="white" transform="translate(0 0.0136719)"/>
</clipPath>
</defs>
</svg>
